<svg xmlns="http://www.w3.org/2000/svg" viewBox="0 0 193.06 193.06"><title>Big_Logo_Red_1_color</title><path d="M38.18,76.41h10c8.59,0,10.91-6,10.91-11.84V15.83a19.34,19.34,0,0,0-.41-4.36H38.18Z" transform="translate(-11.47 -11.47)" style="fill:#ed1c24"/><path d="M60.23,148.82V95.44c0-8.36-3.94-12.07-12.07-12.07h-10V159H47.7C57,159,60.23,155.79,60.23,148.82Z" transform="translate(-11.47 -11.47)" style="fill:#ed1c24"/><path d="M140.44,11.47a24.57,24.57,0,0,1,.34,4.13V44.4h-9.29V16.76a14.89,14.89,0,0,0-.92-5.29H110.4a14.45,14.45,0,0,0-1,5.29V149.52c0,6.5,4.88,10.44,11.14,10.44a22.75,22.75,0,0,0,10.91-2.78V83.53h-9.28v-7h18.57v85.26l-1.16.7c-3.72,2.32-10.45,4.41-19,4.41-13,0-20.42-6.5-20.42-18.11V15.6a23.54,23.54,0,0,1,.35-4.13h-11V166H80.2V11.47H67.91a25.65,25.65,0,0,1,.45,4.82V65c0,9.52-7.2,13.7-14.63,14.16v.47c8.83.46,15.79,3.48,15.79,15.55v52.92c0,12.53-7.66,17.87-18.11,17.87H28.9V11.47H11.47V204.53H204.53V11.47Z" transform="translate(-11.47 -11.47)" style="fill:#ed1c24"/></svg>